<svg xmlns="http://www.w3.org/2000/svg" width="24" height="24" fill="none" id="file-locked"><path fill="url(#a)" d="M16 8a3 3 0 0 1-3-3V1H7a3 3 0 0 0-3 3v16a3 3 0 0 0 3 3h10a3 3 0 0 0 3-3V8h-4Zm0 9a1 1 0 0 1-1 1H9a1 1 0 0 1-1-1v-2a1 1 0 0 1 1-1v-1a3 3 0 0 1 6 0v1a1 1 0 0 1 1 1v2Z"></path><path fill="url(#b)" d="M20 6.82V8h-4a3 3 0 0 1-3-3V1h1.2a3 3 0 0 1 2.13.89l2.8 2.82A3 3 0 0 1 19.88 6c.08.266.12.542.12.82Z"></path><path fill="url(#c)" d="M15 14v-1a3 3 0 0 0-6 0v1a1 1 0 0 0-1 1v2a1 1 0 0 0 1 1h6a1 1 0 0 0 1-1v-2a1 1 0 0 0-1-1Zm-4-1a1 1 0 0 1 2 0v1h-2v-1Z"></path><path fill="url(#d)" d="M13 13v1h-2v-1a1 1 0 0 1 2 0Z"></path><defs><linearGradient id="a" x1="12" x2="12" y1="1" y2="23" gradientUnits="userSpaceOnUse"><stop stop-color="#FFA68D"></stop><stop offset="1" stop-color="#FD3A84"></stop></linearGradient><linearGradient id="b" x1="16.5" x2="16.5" y1="1" y2="8" gradientUnits="userSpaceOnUse"><stop stop-color="#FFF2F4"></stop><stop offset="1" stop-color="#FFE0E5"></stop></linearGradient><linearGradient id="c" x1="12" x2="12" y1="10" y2="18" gradientUnits="userSpaceOnUse"><stop stop-color="#FFF2F4"></stop><stop offset="1" stop-color="#FFE0E5"></stop></linearGradient><linearGradient id="d" x1="12" x2="12" y1="12" y2="14" gradientUnits="userSpaceOnUse"><stop stop-color="#FFA68D"></stop><stop offset="1" stop-color="#FD3A84"></stop></linearGradient></defs></svg>